<svg width="32" height="32" viewBox="0 0 32 32" fill="none" xmlns="http://www.w3.org/2000/svg">
<ellipse cx="6.33329" cy="28.3333" rx="1.66667" ry="1.66667" fill="#BEC2C9"/>
<path fill-rule="evenodd" clip-rule="evenodd" d="M16.6666 12.1333C16.6666 10.9551 17.6218 10 18.8 10H23.7777C24.9559 10 25.9111 10.9551 25.9111 12.1333V15.1556C25.9111 16.3338 24.9559 17.2889 23.7777 17.2889H18.8C17.6218 17.2889 16.6666 16.3338 16.6666 15.1556V12.1333ZM18.8 11.4222C18.4072 11.4222 18.0888 11.7406 18.0888 12.1333V15.1556C18.0888 15.5483 18.4072 15.8667 18.8 15.8667H23.7777C24.1705 15.8667 24.4888 15.5483 24.4888 15.1556V12.1333C24.4888 11.7406 24.1705 11.4222 23.7777 11.4222H18.8Z" fill="#BEC2C9"/>
<path d="M17.3334 16C17.3334 14.8954 18.2288 14 19.3334 14H27.3334C28.4379 14 29.3334 14.8954 29.3334 16V26C29.3334 27.1046 28.4379 28 27.3334 28H19.3334C18.2288 28 17.3334 27.1046 17.3334 26V16Z" fill="#4B4F56"/>
<path d="M19.3333 28.3333C19.3333 29.2538 18.5871 30 17.6667 30C16.7462 30 16 29.2538 16 28.3333C16 27.4129 16.7462 26.6667 17.6667 26.6667C18.5871 26.6667 19.3333 27.4129 19.3333 28.3333Z" fill="#BEC2C9"/>
<path fill-rule="evenodd" clip-rule="evenodd" d="M14.0889 4.26666H9.46671C9.17215 4.26666 8.93337 4.50545 8.93337 4.8V8.97777C8.93337 9.27233 9.17215 9.51111 9.46671 9.51111H14.0889C14.3835 9.51111 14.6223 9.27233 14.6223 8.97778V4.8C14.6223 4.50545 14.3835 4.26666 14.0889 4.26666ZM9.46671 2.66666C8.2885 2.66666 7.33337 3.62179 7.33337 4.8V8.97777C7.33337 10.156 8.2885 11.1111 9.46671 11.1111H14.0889C15.2671 11.1111 16.2223 10.156 16.2223 8.97778V4.8C16.2223 3.62179 15.2671 2.66666 14.0889 2.66666H9.46671Z" fill="#BEC2C9"/>
<path d="M2.66663 9.55534C2.66663 8.08258 3.86053 6.88867 5.33329 6.88867H18.6666C20.1394 6.88867 21.3333 8.08258 21.3333 9.55534V25.3331C21.3333 26.8059 20.1394 27.9998 18.6666 27.9998H5.33329C3.86053 27.9998 2.66663 26.8059 2.66663 25.3331V9.55534Z" fill="#90949C"/>
<path fill-rule="evenodd" clip-rule="evenodd" d="M12 14.2525C12.6082 13.4725 13.5762 12.6667 14.6667 12.6667C16.5075 12.6667 18 14.1052 18 15.8797C18 16.6989 17.6816 17.4463 17.158 18.0139L12.3679 23.1733C12.1699 23.3867 11.8301 23.3867 11.6321 23.1733L6.84172 18.0139C6.3182 17.4463 6 16.6989 6 15.8797C6 14.1052 7.49247 12.6667 9.33325 12.6667C10.4238 12.6667 11.3918 13.4725 12 14.2525Z" fill="#DDDFE2"/>
<g style="mix-blend-mode:color">
<path fill-rule="evenodd" clip-rule="evenodd" d="M14.0888 4.26666H9.46663C9.17207 4.26666 8.93329 4.50545 8.93329 4.8V6.88867H14.6222V4.8C14.6222 4.50545 14.3834 4.26666 14.0888 4.26666ZM16.2222 6.88867V4.8C16.2222 3.62179 15.2671 2.66666 14.0888 2.66666H9.46663C8.28842 2.66666 7.33329 3.62179 7.33329 4.8V6.88867H5.33329C3.86053 6.88867 2.66663 8.08257 2.66663 9.55533V25.3331C2.66663 26.5935 3.541 27.6496 4.71625 27.928C4.68384 28.0578 4.66663 28.1935 4.66663 28.3333C4.66663 29.2538 5.41282 30 6.33329 30C7.25377 30 7.99996 29.2538 7.99996 28.3333C7.99996 28.2191 7.98847 28.1076 7.96658 27.9998H16.0333C16.0115 28.1076 16 28.2191 16 28.3333C16 29.2538 16.7462 30 17.6666 30C18.5871 30 19.3333 29.2538 19.3333 28.3333C19.3333 28.2191 19.3218 28.1075 19.2999 27.9997C19.311 27.9999 19.3221 28 19.3333 28H27.3333C28.4379 28 29.3333 27.1046 29.3333 26V16C29.3333 14.8954 28.4379 14 27.3333 14H25.9111V12.1333C25.9111 10.9551 24.9559 10 23.7777 10H21.3333V9.55534C21.3333 8.08258 20.1394 6.88867 18.6666 6.88867H16.2222ZM21.3333 14V11.4222H23.7777C24.1705 11.4222 24.4888 11.7406 24.4888 12.1333V14H21.3333Z" fill="#F05700"/>
</g>
</svg>
